<svg xmlns="http://www.w3.org/2000/svg" width="64" height="64" viewBox="0 0 64 64"><defs><style>.a{fill:#be9067;}.b{fill:#fff;}.c{fill:#efefef;stroke:#efefef;}</style></defs><g transform="translate(-997.667 -1268.667)"><circle class="a" cx="32" cy="32" r="32" transform="translate(997.667 1268.667)"/><g transform="translate(1014.407 1284.425)"><path class="b" d="M10.415,28.81H26.276a2.546,2.546,0,0,0,2.54-2.54V10.415a2.546,2.546,0,0,0-2.54-2.54H10.415a2.546,2.546,0,0,0-2.54,2.54V26.276A2.545,2.545,0,0,0,10.415,28.81Z" transform="translate(-0.694 -0.694)"/><path class="c" d="M5.915,3.375H21.776a2.546,2.546,0,0,1,2.54,2.54V6.23H8.769a2.546,2.546,0,0,0-2.54,2.54V24.31H5.915a2.546,2.546,0,0,1-2.54-2.54V5.915A2.546,2.546,0,0,1,5.915,3.375Z"/></g></g></svg>