<svg xmlns="http://www.w3.org/2000/svg" width="64" height="64" viewBox="0 0 64 64"><defs><style>.a{fill:#be9067;}.b{fill:#fff;}</style></defs><g transform="translate(-997.667 -1268.667)"><circle class="a" cx="32" cy="32" r="32" transform="translate(997.667 1268.667)"/><path class="b" d="M28.72,6.944H24.147L21.576,4.5H13L10.43,6.944H5.858A2.683,2.683,0,0,0,3,9.389V24.056A2.683,2.683,0,0,0,5.858,26.5H28.72a2.683,2.683,0,0,0,2.858-2.444V9.389A2.683,2.683,0,0,0,28.72,6.944Zm0,17.111H17.289V22.833c-4,0-7.144-2.689-7.144-6.111s3.144-6.111,7.144-6.111V9.389H28.72Zm-4.287-7.333c0-3.422-3.144-6.111-7.144-6.111v2.2c2.572,0,4.572,1.711,4.572,3.911s-2,3.911-4.572,3.911v2.2C21.29,22.833,24.433,20.144,24.433,16.722Zm-11.717,0c0,2.2,2,3.911,4.572,3.911V12.811C14.717,12.811,12.716,14.522,12.716,16.722Z" transform="translate(1012.667 1284.167)"/></g></svg>