<svg xmlns="http://www.w3.org/2000/svg" width="29.626" height="29.626" viewBox="0 0 29.626 29.626"><defs><style>.a{fill:#666;}</style></defs><path class="a" d="M12.333,19.51c0,1.276-.926,1.68-2.063,1.68H7.287v-3.5h3.042C11.559,17.7,12.333,18.207,12.333,19.51Zm-.509-5.442c0-1.17-.906-1.448-1.911-1.448H7.294v2.963h2.824c1,0,1.706-.436,1.706-1.514ZM20.573,15.6a1.971,1.971,0,0,0-2.1,1.964H22.59A1.885,1.885,0,0,0,20.573,15.6ZM29.626,5.424V28.7a3.175,3.175,0,0,1-3.174,3.174H3.174A3.175,3.175,0,0,1,0,28.7V5.424A3.175,3.175,0,0,1,3.174,2.25H26.452A3.175,3.175,0,0,1,29.626,5.424ZM17.967,12.368h5.145v-1.25H17.967Zm-2.844,7.294a3.288,3.288,0,0,0-2.315-3.412A2.469,2.469,0,0,0,14.542,13.8c0-2.526-1.885-3.141-4.06-3.141H4.5v12.7h6.157C12.961,23.345,15.124,22.241,15.124,19.662Zm10.005-.979c0-2.718-1.594-4.986-4.47-4.986a4.615,4.615,0,0,0-4.7,4.867,4.48,4.48,0,0,0,4.7,4.827,4.1,4.1,0,0,0,4.3-3.095H22.735a2.092,2.092,0,0,1-2,1.2,2.075,2.075,0,0,1-2.255-2.334h6.626C25.116,19.007,25.129,18.842,25.129,18.683Z" transform="translate(0 -2.25)"/></svg>