<svg xmlns="http://www.w3.org/2000/svg" width="24.238" height="31.504" viewBox="0 0 24.238 31.504"><defs><style>.a{fill:#666;}</style></defs><path class="a" d="M12.877.457C6.4.457,0,4.774,0,11.762c0,4.444,2.5,6.968,4.014,6.968C4.639,18.73,5,16.988,5,16.5c0-.587-1.5-1.837-1.5-4.28a8.53,8.53,0,0,1,8.862-8.673c4.3,0,7.48,2.443,7.48,6.931,0,3.352-1.344,9.638-5.7,9.638a2.8,2.8,0,0,1-2.916-2.765c0-2.386,1.666-4.7,1.666-7.158,0-4.179-5.927-3.421-5.927,1.629a7.415,7.415,0,0,0,.606,3.2c-.871,3.749-2.651,9.335-2.651,13.2,0,1.193.17,2.367.284,3.56.215.24.107.215.436.095,3.181-4.355,3.068-5.207,4.507-10.907a5.12,5.12,0,0,0,4.374,2.272c6.7,0,9.714-6.533,9.714-12.422C24.238,4.547,18.823.457,12.877.457Z" transform="translate(0 -0.457)"/></svg>