<svg xmlns="http://www.w3.org/2000/svg" width="30.183" height="30.175" viewBox="0 0 30.183 30.175"><defs><style>.a{fill:#666;}</style></defs><path class="a" d="M15.089,9.589a7.737,7.737,0,1,0,7.737,7.737A7.724,7.724,0,0,0,15.089,9.589Zm0,12.766a5.03,5.03,0,1,1,5.03-5.03A5.039,5.039,0,0,1,15.089,22.355ZM24.947,9.272a1.8,1.8,0,1,1-1.8-1.8A1.8,1.8,0,0,1,24.947,9.272ZM30.071,11.1a8.93,8.93,0,0,0-2.438-6.323,8.989,8.989,0,0,0-6.323-2.437c-2.491-.141-9.959-.141-12.45,0A8.976,8.976,0,0,0,2.538,4.774,8.959,8.959,0,0,0,.1,11.1c-.141,2.491-.141,9.959,0,12.45a8.93,8.93,0,0,0,2.438,6.323,9,9,0,0,0,6.323,2.437c2.491.141,9.959.141,12.45,0a8.93,8.93,0,0,0,6.323-2.437,8.989,8.989,0,0,0,2.438-6.323c.141-2.491.141-9.952,0-12.443ZM26.853,26.22a5.092,5.092,0,0,1-2.868,2.868c-1.986.788-6.7.606-8.895.606s-6.915.175-8.895-.606A5.092,5.092,0,0,1,3.326,26.22c-.788-1.986-.606-6.7-.606-8.895s-.175-6.915.606-8.895A5.092,5.092,0,0,1,6.195,5.562c1.986-.788,6.7-.606,8.895-.606s6.915-.175,8.895.606a5.092,5.092,0,0,1,2.868,2.868c.788,1.986.606,6.7.606,8.895S27.641,24.24,26.853,26.22Z" transform="translate(0.005 -2.238)"/></svg>