<svg xmlns="http://www.w3.org/2000/svg" width="161.355" height="43" viewBox="0 0 161.355 43"><defs><style>.a,.b,.c{stroke:#000;}.a{font-size:32px;}.a,.c{font-family:Dosis-Bold, Dosis;font-weight:700;letter-spacing:0.05em;}.b,.c{stroke-width:0.2px;}.c{font-size:14px;}</style></defs><g transform="translate(-113.145 -52)"><text class="a" transform="translate(159.5 86)"><tspan x="0" y="0">CEKREK</tspan></text><g transform="translate(8.825 5.097)"><path class="b" d="M7.96,27.581H1.939a2.672,2.672,0,0,1-1.364-.367,1.174,1.174,0,0,1-.63-1.067v-9.3H4.495v6.742H7.96a1.185,1.185,0,0,1,1.067.595A2.685,2.685,0,0,1,9.4,25.621a2.715,2.715,0,0,1-.35,1.33A1.163,1.163,0,0,1,7.96,27.581ZM4.495,12.049H-.055V1.4A1.172,1.172,0,0,1,.575.334,2.672,2.672,0,0,1,1.939-.033H7.96A1.163,1.163,0,0,1,9.045.6,2.709,2.709,0,0,1,9.4,1.926a2.687,2.687,0,0,1-.368,1.436,1.185,1.185,0,0,1-1.067.595H4.495v8.092Z" transform="translate(104.475 53.94)"/><path class="b" d="M7.96,26.835H1.939a2.672,2.672,0,0,1-1.364-.367A1.175,1.175,0,0,1-.055,25.4V16.358H4.495v6.487H7.96a1.185,1.185,0,0,1,1.067.595A2.681,2.681,0,0,1,9.4,24.875a2.715,2.715,0,0,1-.35,1.33A1.163,1.163,0,0,1,7.96,26.835ZM4.495,11.558H-.055V.655A1.172,1.172,0,0,1,.575-.412,2.672,2.672,0,0,1,1.939-.779H7.96a1.163,1.163,0,0,1,1.085.63A2.709,2.709,0,0,1,9.4,1.18a2.687,2.687,0,0,1-.368,1.436A1.186,1.186,0,0,1,7.96,3.21H4.495v8.346Z" transform="translate(142.8 82.348) rotate(180)"/><text class="c" transform="translate(117.899 60.789) rotate(90)"><tspan x="0" y="0">[ ]</tspan></text></g></g></svg>