<svg xmlns="http://www.w3.org/2000/svg" width="51" height="51" viewBox="0 0 51 51"><defs><style>.a{fill:#be9067;}.b{fill:#efefef;}</style></defs><g transform="translate(-162 -2625)"><circle class="a" cx="25.5" cy="25.5" r="25.5" transform="translate(162 2625)"/><path class="b" d="M14.472,0a14.455,14.455,0,0,0-6.91,1.809l11.65,8.466,2.713-8.14A14.554,14.554,0,0,0,14.472,0ZM4.522,4.088A14.4,14.4,0,0,0,0,14.508a15.5,15.5,0,0,0,.217,2.6L11.4,9.081,4.486,4.088Zm20.369.47L20.478,18.126H28.4a14.826,14.826,0,0,0,.579-3.618A14.342,14.342,0,0,0,24.892,4.559ZM7.815,16.209,1.483,20.731A14.551,14.551,0,0,0,11.9,28.763L7.815,16.209Zm5.644,5.536,2.279,7.127a14.369,14.369,0,0,0,11.18-7.127Z" transform="translate(173 2636)"/></g></svg>