<svg xmlns="http://www.w3.org/2000/svg" width="64" height="64" viewBox="0 0 64 64"><defs><style>.a{fill:#be9067;}.b{fill:#fff;stroke:#fff;}</style></defs><g transform="translate(-997.667 -1268.667)"><circle class="a" cx="32" cy="32" r="32" transform="translate(997.667 1268.667)"/><path class="b" d="M25.686,13.756v11.9H7.148V7.144h11.9V4.5H7.174A2.652,2.652,0,0,0,4.53,7.144V25.656A2.652,2.652,0,0,0,7.174,28.3H25.686a2.652,2.652,0,0,0,2.644-2.644v-11.9Zm-2.671,0,1.243-2.724,2.724-1.243L24.258,8.546,23.015,5.822,21.772,8.546,19.048,9.789l2.724,1.243Zm-4.958.992L16.4,11.111l-1.653,3.636L11.115,16.4l3.636,1.653L16.4,21.689l1.653-3.636L21.692,16.4Z" transform="translate(1013.437 1284.667)"/></g></svg>