<svg xmlns="http://www.w3.org/2000/svg" width="51" height="51" viewBox="0 0 51 51"><defs><style>.a{fill:#be9067;}.b{fill:#fff;}</style></defs><g transform="translate(-607 -2463)"><circle class="a" cx="25.5" cy="25.5" r="25.5" transform="translate(607 2463)"/><path class="b" d="M12.075,0a.5.5,0,0,0-.385.266L8.908,5.624a.421.421,0,0,1-.385.266H4.35A4.434,4.434,0,0,0-.09,10.33V23.384a.265.265,0,0,0,.266.266H23.294a.265.265,0,0,0,.266-.266V6.186a.248.248,0,0,0-.266-.266H20.9a.5.5,0,0,1-.385-.266L17.729.3A.456.456,0,0,0,17.344.03H11.987ZM4.409,8.88a1.48,1.48,0,1,1-1.48,1.48A1.466,1.466,0,0,1,4.409,8.88Zm10.36,0a5.92,5.92,0,1,1-5.92,5.92A5.937,5.937,0,0,1,14.769,8.88Zm0,2.96a2.96,2.96,0,1,0,2.96,2.96A2.969,2.969,0,0,0,14.769,11.84Z" transform="translate(621.09 2475.827)"/></g></svg>