<svg xmlns="http://www.w3.org/2000/svg" width="51" height="51" viewBox="0 0 51 51"><defs><style>.a{fill:#be9067;}.b{fill:none;stroke:#fff;stroke-linecap:round;stroke-linejoin:round;stroke-width:3px;}</style></defs><g transform="translate(-607 -2625)"><circle class="a" cx="25.5" cy="25.5" r="25.5" transform="translate(607 2625)"/><g transform="translate(616.001 2633.597)"><path class="b" d="M27.772,21.1V10.758a2.586,2.586,0,0,0-1.293-2.237L17.429,3.35a2.586,2.586,0,0,0-2.586,0L5.793,8.521A2.586,2.586,0,0,0,4.5,10.758V21.1a2.586,2.586,0,0,0,1.293,2.237l9.05,5.172a2.586,2.586,0,0,0,2.586,0l9.05-5.172A2.586,2.586,0,0,0,27.772,21.1Z"/><path class="b" d="M4.905,10.44l11.287,6.529L27.479,10.44" transform="translate(-0.056 -1.027)"/><path class="b" d="M18,31.032V18" transform="translate(-1.864 -2.071)"/></g></g></svg>