<svg xmlns="http://www.w3.org/2000/svg" width="51" height="51" viewBox="0 0 51 51"><defs><style>.a{fill:#be9067;}.b{fill:#fff;}</style></defs><g transform="translate(-162 -2303)"><circle class="a" cx="25.5" cy="25.5" r="25.5" transform="translate(162 2303)"/><path class="b" d="M17.815,11.9A5.918,5.918,0,1,1,11.9,17.815,5.916,5.916,0,0,1,17.815,11.9ZM28.171,22.253H31.13v5.918a2.968,2.968,0,0,1-2.959,2.959H22.253V28.171h5.918Zm0-14.794H22.253V4.5h5.918A2.968,2.968,0,0,1,31.13,7.459v5.918H28.171ZM7.459,4.5h5.918V7.459H7.459v5.918H4.5V7.459A2.968,2.968,0,0,1,7.459,4.5Zm0,23.671h5.918V31.13H7.459A2.968,2.968,0,0,1,4.5,28.171V22.253H7.459Z" transform="translate(169.87 2310.5)"/></g></svg>