<svg xmlns="http://www.w3.org/2000/svg" width="64" height="64" viewBox="0 0 64 64"><defs><style>.a{fill:#be9067;}.b{fill:#fff;}</style></defs><g transform="translate(-997.667 -1268.667)"><circle class="a" cx="32" cy="32" r="32" transform="translate(997.667 1268.667)"/><g transform="translate(1015.155 1289.692)"><path class="b" d="M22.52,19.574a4.281,4.281,0,1,1-4.281-4.281A4.281,4.281,0,0,1,22.52,19.574Z" transform="translate(-3.943 -7.438)"/><path class="b" d="M30.82,11.449H26.762a1.208,1.208,0,0,1-.893-.4c-2.115-2.368-2.911-3.172-3.775-3.172H15.728c-.871,0-1.727.8-3.849,3.179a1.185,1.185,0,0,1-.886.395h-.305v-.6a.6.6,0,0,0-.6-.6H8.156a.6.6,0,0,0-.6.6v.6H7a2.415,2.415,0,0,0-2.5,2.286v13.1a2.578,2.578,0,0,0,2.494,2.479H30.82a2.387,2.387,0,0,0,2.271-2.479v-13.1A2.219,2.219,0,0,0,30.82,11.449ZM19.093,26.37a6.366,6.366,0,1,1,6.061-6.061A6.372,6.372,0,0,1,19.093,26.37Zm6.85-10.6a.968.968,0,1,1,.968-.968A.966.966,0,0,1,25.943,15.767Z" transform="translate(-4.5 -7.875)"/></g></g></svg>