<svg xmlns="http://www.w3.org/2000/svg" width="51" height="51" viewBox="0 0 51 51"><defs><style>.a{fill:#be9067;}.b{fill:#fff;}</style></defs><g transform="translate(-162 -2463)"><circle class="a" cx="25.5" cy="25.5" r="25.5" transform="translate(162 2463)"/><path class="b" d="M11.843,25.44H9.65V19.015a7.931,7.931,0,0,0,6.108-8.452L14.883.8a.87.87,0,0,0-.861-.8H1.769A.869.869,0,0,0,.908.8L.033,10.563a7.931,7.931,0,0,0,6.108,8.452V25.44H3.948a2.193,2.193,0,0,0-2.193,2.193.438.438,0,0,0,.439.439H13.6a.438.438,0,0,0,.439-.439A2.193,2.193,0,0,0,11.843,25.44ZM3.386,2.632H12.4L12.8,7.018H2.993Z" transform="translate(180.103 2475.35)"/></g></svg>